HIERARCHY
ROOT Hips
{
  OFFSET -0.589095 22.1471 2.58842
  CHANNELS 6 Xposition Yposition Zposition Zrotation Xrotation Yrotation
  JOINT BN_Bip01_Pelvis
  {
    OFFSET -3.49357 -5.29363 -0.000213444
    CHANNELS 6 Xposition Yposition Zposition Zrotation Xrotation Yrotation
    JOINT BN_leg_R_01
    {
      OFFSET 10.8127 -7.82778 -6.29737
      CHANNELS 6 Xposition Yposition Zposition Zrotation Xrotation Yrotation
      JOINT BN_leg_R_02
      {
        OFFSET 8.91071 0 0
        CHANNELS 6 Xposition Yposition Zposition Zrotation Xrotation Yrotation
        JOINT BN_leg_R_03
        {
          OFFSET 15.6024 0 0
          CHANNELS 6 Xposition Yposition Zposition Zrotation Xrotation Yrotation
          JOINT BN_leg_R_04
          {
            OFFSET 9.68174 0 0
            CHANNELS 6 Xposition Yposition Zposition Zrotation Xrotation Yrotation
            JOINT BN_leg_R_05
            {
              OFFSET 10.6982 0 0
              CHANNELS 6 Xposition Yposition Zposition Zrotation Xrotation Yrotation
              JOINT BN_Leg_R_05Nub
              {
                OFFSET 11.1504 0 0
                CHANNELS 6 Xposition Yposition Zposition Zrotation Xrotation Yrotation
                End Site
                {
                  OFFSET 0 0 0
                }
              }
            }
          }
        }
      }
    }
    JOINT BN_leg_R_06
    {
      OFFSET 6.51511 -7.99898 -4.29089
      CHANNELS 6 Xposition Yposition Zposition Zrotation Xrotation Yrotation
      JOINT BN_Leg_R_07
      {
        OFFSET 9.03709 0 0
        CHANNELS 6 Xposition Yposition Zposition Zrotation Xrotation Yrotation
        JOINT BN_Leg_R_08
        {
          OFFSET 18.7638 0 0
          CHANNELS 6 Xposition Yposition Zposition Zrotation Xrotation Yrotation
          JOINT BN_Leg_R_09
          {
            OFFSET 10.9666 0 0
            CHANNELS 6 Xposition Yposition Zposition Zrotation Xrotation Yrotation
            JOINT BN_Leg_R_10
            {
              OFFSET 10.8726 0 0
              CHANNELS 6 Xposition Yposition Zposition Zrotation Xrotation Yrotation
              JOINT BN_Leg_R_10Nub
              {
                OFFSET 11.2648 0 0
                CHANNELS 6 Xposition Yposition Zposition Zrotation Xrotation Yrotation
                End Site
                {
                  OFFSET 0 0 0
                }
              }
            }
          }
        }
      }
    }
    JOINT BN_Leg_R_11
    {
      OFFSET 2.71429 -8.18693 -0.209972
      CHANNELS 6 Xposition Yposition Zposition Zrotation Xrotation Yrotation
      JOINT BN_Leg_R_12
      {
        OFFSET 9.8713 0 0
        CHANNELS 6 Xposition Yposition Zposition Zrotation Xrotation Yrotation
        JOINT BN_Leg_R_13
        {
          OFFSET 21.8657 0 0
          CHANNELS 6 Xposition Yposition Zposition Zrotation Xrotation Yrotation
          JOINT BN_Leg_R_14
          {
            OFFSET 11.0011 0 0
            CHANNELS 6 Xposition Yposition Zposition Zrotation Xrotation Yrotation
            JOINT BN_Leg_R_15
            {
              OFFSET 12.8798 0 0
              CHANNELS 6 Xposition Yposition Zposition Zrotation Xrotation Yrotation
              JOINT BN_Leg_R_15Nub
              {
                OFFSET 13.0642 0 0
                CHANNELS 6 Xposition Yposition Zposition Zrotation Xrotation Yrotation
                End Site
                {
                  OFFSET 0 0 0
                }
              }
            }
          }
        }
      }
    }
    JOINT BN_Leg_L_11
    {
      OFFSET 2.7143 8.18692 -0.209982
      CHANNELS 6 Xposition Yposition Zposition Zrotation Xrotation Yrotation
      JOINT BN_Leg_L_12
      {
        OFFSET 9.87129 0 0
        CHANNELS 6 Xposition Yposition Zposition Zrotation Xrotation Yrotation
        JOINT BN_Leg_L_13
        {
          OFFSET 21.8657 0 0
          CHANNELS 6 Xposition Yposition Zposition Zrotation Xrotation Yrotation
          JOINT BN_Leg_L_14
          {
            OFFSET 11.0011 0 0
            CHANNELS 6 Xposition Yposition Zposition Zrotation Xrotation Yrotation
            JOINT BN_Leg_L_15
            {
              OFFSET 12.8798 0 0
              CHANNELS 6 Xposition Yposition Zposition Zrotation Xrotation Yrotation
              JOINT BN_Leg_L_15Nub
              {
                OFFSET 13.0642 0 0
                CHANNELS 6 Xposition Yposition Zposition Zrotation Xrotation Yrotation
                End Site
                {
                  OFFSET 0 0 0
                }
              }
            }
          }
        }
      }
    }
    JOINT BN_leg_L_06
    {
      OFFSET 6.51511 7.99896 -4.29091
      CHANNELS 6 Xposition Yposition Zposition Zrotation Xrotation Yrotation
      JOINT BN_Leg_L_07
      {
        OFFSET 9.03709 0 0
        CHANNELS 6 Xposition Yposition Zposition Zrotation Xrotation Yrotation
        JOINT BN_Leg_L_08
        {
          OFFSET 18.7638 0 0
          CHANNELS 6 Xposition Yposition Zposition Zrotation Xrotation Yrotation
          JOINT BN_Leg_L_09
          {
            OFFSET 10.9666 0 0
            CHANNELS 6 Xposition Yposition Zposition Zrotation Xrotation Yrotation
            JOINT BN_Leg_L_10
            {
              OFFSET 10.8726 0 0
              CHANNELS 6 Xposition Yposition Zposition Zrotation Xrotation Yrotation
              JOINT BN_Leg_L_10Nub
              {
                OFFSET 11.2649 0 0
                CHANNELS 6 Xposition Yposition Zposition Zrotation Xrotation Yrotation
                End Site
                {
                  OFFSET 0 0 0
                }
              }
            }
          }
        }
      }
    }
    JOINT BN_leg_L_01
    {
      OFFSET 10.8127 7.82776 -6.29737
      CHANNELS 6 Xposition Yposition Zposition Zrotation Xrotation Yrotation
      JOINT BN_leg_L_02
      {
        OFFSET 8.91072 0 0
        CHANNELS 6 Xposition Yposition Zposition Zrotation Xrotation Yrotation
        JOINT BN_leg_L_03
        {
          OFFSET 15.6024 0 0
          CHANNELS 6 Xposition Yposition Zposition Zrotation Xrotation Yrotation
          JOINT BN_leg_L_04
          {
            OFFSET 9.68174 0 0
            CHANNELS 6 Xposition Yposition Zposition Zrotation Xrotation Yrotation
            JOINT BN_leg_L_05
            {
              OFFSET 10.6982 0 0
              CHANNELS 6 Xposition Yposition Zposition Zrotation Xrotation Yrotation
              JOINT BN_Leg_L_05Nub
              {
                OFFSET 11.1504 0 0
                CHANNELS 6 Xposition Yposition Zposition Zrotation Xrotation Yrotation
                End Site
                {
                  OFFSET 0 0 0
                }
              }
            }
          }
        }
      }
    }
    JOINT BN_Eye_L_01
    {
      OFFSET 28.5502 2.54627 -3.93739
      CHANNELS 6 Xposition Yposition Zposition Zrotation Xrotation Yrotation
      JOINT BN_Eye_L_02
      {
        OFFSET 2.30267 0 0
        CHANNELS 6 Xposition Yposition Zposition Zrotation Xrotation Yrotation
        JOINT BN_Eye_L_03
        {
          OFFSET 5.31894 0 0
          CHANNELS 6 Xposition Yposition Zposition Zrotation Xrotation Yrotation
          JOINT BN_Eye_L_04
          {
            OFFSET 9.71244 0 0
            CHANNELS 6 Xposition Yposition Zposition Zrotation Xrotation Yrotation
            End Site
            {
              OFFSET 0 0 0
            }
          }
        }
      }
    }
    JOINT BN_Eye_R_01
    {
      OFFSET 28.5502 -2.54612 -3.93738
      CHANNELS 6 Xposition Yposition Zposition Zrotation Xrotation Yrotation
      JOINT BN_Eye_R_02
      {
        OFFSET 2.30267 0 0
        CHANNELS 6 Xposition Yposition Zposition Zrotation Xrotation Yrotation
        JOINT BN_Eye_R_03
        {
          OFFSET 5.31896 0 0
          CHANNELS 6 Xposition Yposition Zposition Zrotation Xrotation Yrotation
          JOINT BN_Eye_R_04
          {
            OFFSET 9.71244 0 0
            CHANNELS 6 Xposition Yposition Zposition Zrotation Xrotation Yrotation
            End Site
            {
              OFFSET 0 0 0
            }
          }
        }
      }
    }
    JOINT BN_Arm_L_01
    {
      OFFSET 15.9737 8.03546 -8.36195
      CHANNELS 6 Xposition Yposition Zposition Zrotation Xrotation Yrotation
      JOINT BN_Arm_L_02
      {
        OFFSET 16.8869 0 0
        CHANNELS 6 Xposition Yposition Zposition Zrotation Xrotation Yrotation
        JOINT BN_Arm_L_03
        {
          OFFSET 8.42975 0 0
          CHANNELS 6 Xposition Yposition Zposition Zrotation Xrotation Yrotation
          JOINT BN_Arm_L_04
          {
            OFFSET 7.53864 -0.0312023 2.09083
            CHANNELS 6 Xposition Yposition Zposition Zrotation Xrotation Yrotation
            End Site
            {
              OFFSET 0 0 0
            }
          }
        }
      }
    }
    JOINT BN_Arm_R_01
    {
      OFFSET 14.7806 -6.70232 -9.44366
      CHANNELS 6 Xposition Yposition Zposition Zrotation Xrotation Yrotation
      JOINT BN_Arm_R_02
      {
        OFFSET 19.9827 0 0
        CHANNELS 6 Xposition Yposition Zposition Zrotation Xrotation Yrotation
        JOINT BN_Arm_R_03
        {
          OFFSET 17.4553 0 0
          CHANNELS 6 Xposition Yposition Zposition Zrotation Xrotation Yrotation
          JOINT BN_Arm_R_04
          {
            OFFSET 13.3834 -2.22657 7.3982
            CHANNELS 6 Xposition Yposition Zposition Zrotation Xrotation Yrotation
            End Site
            {
              OFFSET 0 0 0
            }
          }
        }
      }
    }
  }
}
MOTION
Frames:	4
Frame Time:	0.0333333
-20.7244 22.6378 -0.219456 -0 -0.00379759 -0 -3.49325 -8.0258 0 -163.39 -84.4569 153.045 10.8127 -7.82778 -6.29736 -119.037 29.9131 44.0179 8.91072 -1.90735e-006 9.53674e-007 62.2641 0.0746736 1.32768 15.6024 -4.76837e-007 9.53674e-007 -81.002 6.40727 27.8343 9.68174 0 9.53674e-007 -15.8598 0.598458 -9.51446 10.6982 3.8147e-006 0 -29.013 4.11553 0.739982 11.1504 1.14441e-005 1.90735e-006 -4.23328e-007 1.14266e-005 -3.38164e-007 6.5151 -7.99897 -4.29089 -151.429 17.2348 24.6082 9.03709 -2.86102e-006 -1.90735e-006 103.894 -2.42045 -2.82753 18.7638 -9.53675e-007 0 -87.6132 8.60682 23.3355 10.9665 -3.8147e-006 3.8147e-006 -20.6561 -0.579887 -0.933947 10.8726 3.8147e-006 0 -19.0245 -0.0165519 -2.12335 11.2648 3.8147e-006 1.90735e-006 -1.98918e-006 -1.00583e-008 -4.0119e-008 2.71429 -8.18693 -0.209967 -137.024 32.8948 -3.67541 9.87129 3.8147e-006 3.8147e-006 62.9761 2.25678 -0.50058 21.8657 9.53674e-007 -3.8147e-006 -61.8222 1.51715 4.78168 11.0011 0 3.8147e-006 -17.4722 -0.323998 -0.79282 12.8798 0 5.72205e-006 -26.449 -0.0312155 0.071698 13.0642 7.62939e-006 -9.53674e-006 3.81888e-007 9.83709e-006 6.041e-007 2.7143 8.18692 -0.209976 114.318 -35.648 -25.2417 9.87129 9.53674e-007 1.90735e-006 -46.0439 -2.37897 -0.330713 21.8657 -9.53674e-007 -5.72205e-006 50.801 -1.95712 5.66213 11.0011 0 1.06581e-014 21.8709 0.348853 -0.904456 12.8798 0 -3.55271e-015 31.8188 0.0307169 0.0312516 13.0642 -1.42109e-014 -7.6294e-006 1.0408e-006 -9.16623e-007 5.05569e-007 6.51512 7.99896 -4.2909 109.06 -25.8438 11.4895 9.03709 2.86102e-006 -1.90735e-006 -72.1689 1.78514 -2.74611 18.7638 2.86102e-006 1.90735e-006 80.2117 -13.5984 21.1937 10.9666 -7.10542e-015 0 34.3004 0.429962 -1.85658 10.8726 3.81469e-006 1.90735e-006 32.5081 0.0147392 -3.06095 11.2648 0 0 8.65319e-008 1.01847e-006 2.77316e-008 10.8127 7.82776 -6.29737 92.5799 -37.2441 45.2363 8.91072 -1.77636e-015 1.77636e-015 -42.5896 0.320456 0.766753 15.6024 -4.76837e-006 -9.53674e-007 58.505 -5.11017 19.1834 9.68174 -3.8147e-006 -4.76837e-006 23.8123 0.0789887 -11.6487 10.6982 0 2.86102e-006 38.8145 -4.11631 -0.441441 11.1504 0 1.77636e-015 1.95359e-008 8.7796e-006 -5.942e-010 28.5502 2.54627 -3.93738 89.995 -40.8534 50.3814 2.30267 -1.90735e-006 0 -41.2041 0.980072 -6.44296 5.31895 1.90735e-006 1.19209e-007 -12.8768 2.22552 -7.45995 9.71242 0 -2.38419e-006 -19.1234 -0.00825896 3.10212 28.5502 -2.54612 -3.93737 89.9968 -39.1541 129.609 2.30267 -1.90735e-006 4.76837e-007 -45.2354 -1.36562 6.09542 5.31895 -3.55271e-015 -8.88179e-016 -12.0797 0.0763537 5.9293 9.71243 9.53675e-007 -5.36442e-007 -22.5615 -1.21319 0.20021 15.9737 8.03546 -8.36195 56.5593 26.2117 3.73449 16.8869 -2.38419e-006 -1.90735e-006 -51.5045 4.95735 -14.8467 8.42975 0 -9.53675e-007 -25.5911 -3.64236e-006 1.15565e-005 7.53865 -0.031208 2.09083 -7.43618 -4.90694 -12.3517 14.7806 -6.70232 -9.44365 -41.6457 -48.8016 14.5155 19.9827 1.90735e-006 -3.8147e-006 36.1933 1.1859 -25.3426 17.4553 3.8147e-006 9.53674e-007 25.0463 -3.83222 -0.105507 13.3835 -2.22654 7.39821 8.80083 1.66465 -20.5323 
-21.1593 21.4986 -0.219456 -7.78925 5.29282 -3.61731 -3.49325 -8.0258 1.11022e-016 -163.39 -84.4569 153.045 10.8127 -7.82778 -6.29736 -104.993 38.9749 32.6129 8.91072 -1.90735e-006 9.53674e-007 65.1804 0.142137 1.32216 15.6024 -4.76837e-007 9.53674e-007 -86.6632 11.5065 34.6659 9.68174 7.10544e-015 9.53674e-007 -20.5316 0.201162 -10.7938 10.6982 3.8147e-006 3.01981e-014 -34.8115 4.11579 0.0521771 11.1504 1.14441e-005 1.90735e-006 -4.23327e-007 1.14266e-005 -3.38164e-007 6.5151 -7.99897 -4.29089 -141.231 21.5373 21.1703 9.03709 -2.86102e-006 -1.90735e-006 102.884 -2.40012 -2.84286 18.7638 -9.53675e-007 3.55271e-015 -87.4003 12.2416 31.9234 10.9665 -3.8147e-006 3.8147e-006 -22.7838 -0.557429 -1.07879 10.8726 3.8147e-006 -5.32907e-014 -21.1142 -0.0165944 -2.28693 11.2648 3.8147e-006 1.90735e-006 -1.98918e-006 -1.00584e-008 -4.0119e-008 2.71429 -8.18693 -0.209967 -132.424 31.8475 -3.54255 9.87129 3.8147e-006 3.8147e-006 63.773 2.23988 -0.512161 21.8657 9.53674e-007 -3.8147e-006 -60.3572 4.75077 11.3522 11.0011 -2.84217e-014 3.8147e-006 -19.9317 -0.337095 -0.855698 12.8798 -7.10542e-014 5.72205e-006 -29.4576 -0.0250936 0.0525362 13.0642 7.62939e-006 -9.53674e-006 3.81888e-007 9.83709e-006 6.041e-007 2.7143 8.18692 -0.209976 129.441 -37.0845 -17.8668 9.87129 9.53674e-007 1.90735e-006 -51.723 -2.3446 -0.389694 21.8657 -9.53674e-007 -5.72205e-006 55.5331 -3.98981 9.64028 11.0011 7.10543e-015 3.55271e-015 21.0997 0.343718 -0.885724 12.8798 -7.10543e-015 2.4869e-014 30.8863 0.0336244 0.0374639 13.0642 -1.42109e-014 -7.6294e-006 1.0408e-006 -9.16623e-007 5.05569e-007 6.51512 7.99896 -4.2909 113.224 -26.9078 11.0531 9.03709 2.86102e-006 -1.90735e-006 -72.3581 1.78814 -2.7532 18.7638 2.86102e-006 1.90735e-006 79.3526 -17.7042 26.0847 10.9666 -7.10542e-015 1.42109e-014 36.9114 0.397603 -2.02682 10.8726 3.81469e-006 1.90735e-006 35.1038 0.0164888 -3.21348 11.2648 7.10542e-015 2.13163e-014 8.65319e-008 1.01847e-006 2.77316e-008 10.8127 7.82776 -6.29737 85.5504 -41.1965 35.7123 8.91072 -1.77636e-015 3.55271e-015 -36.4426 0.382456 0.600968 15.6024 -4.76837e-006 -9.53674e-007 50.708 -10.7594 27.3255 9.68174 -3.8147e-006 -4.76837e-006 27.907 0.428293 -12.6796 10.6982 5.68434e-014 2.86102e-006 43.7552 -4.11685 -1.0611 11.1504 0 1.77636e-014 1.95359e-008 8.7796e-006 -5.9419e-010 28.5502 2.54627 -3.93738 89.995 -40.8534 50.3814 2.30267 -1.90735e-006 8.88178e-016 -57.5457 5.4703 -22.1616 5.31895 1.90735e-006 1.19209e-007 -8.90576 1.97559 -5.28011 9.71242 -7.81597e-014 -2.38419e-006 -10.0222 -0.610342 5.85557 28.5502 -2.54612 -3.93737 89.9968 -39.1541 129.609 2.30267 -1.90735e-006 4.76837e-007 -71.9235 -0.382912 -0.352308 5.31895 -1.77636e-015 -1.77636e-015 -3.33184 2.46145 7.92372 9.71243 9.53675e-007 -5.36442e-007 -8.08805 -0.593525 4.72936 15.9737 8.03546 -8.36195 60.1824 22.96 -0.511394 16.8869 -2.38419e-006 -1.90735e-006 -48.7935 0.85002 -17.2153 8.42975 0 -9.53675e-007 -24.0632 -2.38397 -2.41359 7.53865 -0.031208 2.09083 -7.4386 -4.92755 -11.4084 14.7806 -6.70232 -9.44365 -39.4016 -45.1135 13.4547 19.9827 1.90735e-006 -3.8147e-006 38.3522 2.38136 -29.1174 17.4553 3.8147e-006 9.53674e-007 26.461 -2.70586 -4.33441 13.3835 -2.22654 7.39821 8.80184 1.6671 -19.9071 
-22.292 19.4412 -0.219456 -19.8842 17.9907 -10.3368 -3.49325 -8.0258 -1.55431e-015 -163.39 -84.4569 153.045 10.8127 -7.82778 -6.29736 -72.0553 50.6286 -0.130572 8.91072 -1.90735e-006 9.53674e-007 62.8572 0.0884143 1.32683 15.6024 -4.76837e-007 9.53674e-007 -90.0192 23.9392 46.2276 9.68174 0 9.53674e-007 -31.5256 -0.735201 -13.5632 10.6982 3.8147e-006 1.13687e-013 -48.0819 4.11392 -1.59759 11.1504 1.14441e-005 1.90735e-006 -4.23327e-007 1.14266e-005 -3.38164e-007 6.5151 -7.99897 -4.29089 -120.617 29.2415 10.9069 9.03709 -2.86102e-006 -1.90735e-006 97.8529 -2.3072 -2.90626 18.7638 -9.53675e-007 -7.10543e-015 -77.7903 20.3259 48.6692 10.9665 -3.8147e-006 3.8147e-006 -27.9257 -0.505701 -1.43031 10.8726 3.8147e-006 7.10543e-015 -26.1871 -0.0156124 -2.65007 11.2648 3.8147e-006 1.90735e-006 -1.98918e-006 -1.00584e-008 -4.0119e-008 2.71429 -8.18693 -0.209967 -119.699 30.3598 -7.10596 9.87129 3.8147e-006 3.8147e-006 63.28 2.24981 -0.504013 21.8657 9.53674e-007 -3.8147e-006 -52.6505 12.8632 24.0931 11.0011 -3.94351e-013 3.8147e-006 -25.5991 -0.372749 -0.9956 12.8798 -2.27374e-013 5.72205e-006 -36.3254 -0.0045692 0.0129461 13.0642 7.62939e-006 -9.53674e-006 3.81888e-007 9.83709e-006 6.041e-007 2.7143 8.18692 -0.209976 158.46 -34.5301 -3.327 9.87129 9.53674e-007 1.90735e-006 -59.082 -2.29085 -0.462157 21.8657 -9.53674e-007 -5.72205e-006 60.0449 -7.21803 16.3186 11.0011 0 0 20.8778 0.342648 -0.881035 12.8798 0 7.10543e-015 30.6169 0.0334384 0.0376037 13.0642 0 -7.6294e-006 1.0408e-006 -9.16623e-007 5.05569e-007 6.51512 7.99896 -4.2909 125.684 -27.6229 12.1494 9.03709 2.86102e-006 -1.90735e-006 -73.0938 1.80424 -2.76869 18.7638 2.86102e-006 1.90735e-006 77.8333 -25.4541 34.5653 10.9666 3.55271e-015 5.68434e-014 41.568 0.330977 -2.32148 10.8726 3.81469e-006 1.90735e-006 39.7405 0.0160897 -3.4646 11.2649 -7.10542e-015 7.10543e-015 8.65319e-008 1.01847e-006 2.77316e-008 10.8127 7.82776 -6.29737 72.4772 -47.6941 14.4 8.91072 1.77636e-015 1.06581e-014 -14.9022 0.47277 0.160585 15.6024 -4.76837e-006 -9.53674e-007 29.635 -23.2046 40.4117 9.68174 -3.8147e-006 -4.76837e-006 36.0243 1.10644 -14.625 10.6982 1.56319e-013 2.86102e-006 53.4349 -4.1131 -2.24279 11.1504 3.55271e-015 2.84217e-014 1.95359e-008 8.7796e-006 -5.94198e-010 28.5502 2.54627 -3.93738 89.995 -40.8534 50.3814 2.30267 -1.90735e-006 -2.66454e-015 -66.4728 10.3341 -32.5673 5.31895 1.90735e-006 1.19209e-007 -13.5302 3.19348 -11.9827 9.71242 -2.07834e-013 -2.38419e-006 -7.9783 0.0521497 1.81614 28.5502 -2.54612 -3.93737 89.9968 -39.1541 129.609 2.30267 -1.90735e-006 4.76837e-007 -91.4577 0.64815 0.178888 5.31895 7.99361e-015 0 -12.0238 4.62218 5.7362 9.71243 9.53675e-007 -5.36442e-007 -3.59928 2.79339 5.53222 15.9737 8.03546 -8.36195 65.4258 16.8519 -7.70739 16.8869 -2.38419e-006 -1.90735e-006 -44.3534 -6.28489 -21.7259 8.42975 -7.10543e-015 -9.53675e-007 -21.4613 -6.65084 -6.81134 7.53865 -0.0312079 2.09083 -7.44688 -4.97386 -8.9297 14.7806 -6.70232 -9.44365 -35.1038 -38.446 11.6951 19.9827 1.90735e-006 -3.8147e-006 43.209 4.27073 -35.9876 17.4553 3.8147e-006 9.53674e-007 29.7271 -0.680026 -11.9635 13.3835 -2.22654 7.39821 8.80068 1.67626 -18.2738 
-23.9657 18.3224 -0.219456 -24.1371 28.5332 -15.534 -3.49325 -8.0258 -2.66454e-015 -163.39 -84.4569 153.045 10.8127 -7.82778 -6.29736 -50.1767 53.1404 -25.1032 8.91072 -1.90735e-006 9.53674e-007 56.215 -0.0656773 1.32815 15.6024 -4.76837e-007 9.53674e-007 -89.3941 32.7996 51.7122 9.68174 7.10544e-015 9.53674e-007 -39.3242 -1.3663 -15.3821 10.6982 3.8147e-006 1.49214e-013 -57.3511 4.11238 -2.69262 11.1504 1.14441e-005 1.90735e-006 -4.23327e-007 1.14266e-005 -3.38164e-007 6.5151 -7.99897 -4.29089 -106.436 34.8167 -0.0453049 9.03709 -2.86102e-006 -1.90735e-006 90.6742 -2.16465 -2.94572 18.7638 -9.53675e-007 -7.10543e-015 -63.4248 27.1132 58.4146 10.9665 -3.8147e-006 3.8147e-006 -33.0246 -0.444658 -1.7733 10.8726 3.8147e-006 6.39488e-014 -31.2414 -0.0149951 -2.98583 11.2648 3.8147e-006 1.90735e-006 -1.98918e-006 -1.00585e-008 -4.01189e-008 2.71429 -8.18693 -0.209967 -109.489 30.0039 -12.5759 9.87129 3.8147e-006 3.8147e-006 62.6236 2.26371 -0.494206 21.8657 9.53674e-007 -3.8147e-006 -43.0834 19.8401 33.9389 11.0011 -1.72484e-012 3.8147e-006 -29.4021 -0.394559 -1.08695 12.8798 -3.4106e-013 5.72205e-006 -40.8983 0.00976801 -0.0051863 13.0642 7.62939e-006 -9.53674e-006 3.81888e-007 9.83709e-006 6.041e-007 2.7143 8.18692 -0.209976 176.26 -29.6329 4.74369 9.87129 9.53674e-007 1.90735e-006 -62.8285 -2.25743 -0.497669 21.8657 -9.53674e-007 -5.72205e-006 62.0018 -8.33632 18.7426 11.0011 0 3.55271e-015 20.7604 0.344188 -0.877222 12.8798 -7.10543e-015 3.19744e-014 30.4719 0.0350487 0.040586 13.0642 0 -7.6294e-006 1.0408e-006 -9.16623e-007 5.05569e-007 6.51512 7.99896 -4.2909 137.146 -25.4774 15.2295 9.03709 2.86102e-006 -1.90735e-006 -73.5255 1.81255 -2.77656 18.7638 2.86102e-006 1.90735e-006 75.6284 -29.6662 39.0544 10.9666 3.55271e-015 1.06581e-013 43.9656 0.298761 -2.4741 10.8726 3.81469e-006 1.90735e-006 42.1395 0.0158221 -3.57825 11.2649 7.10542e-015 -3.55271e-015 8.65319e-008 1.01847e-006 2.77316e-008 10.8127 7.82776 -6.29737 69.1686 -49.0945 3.69469 8.91072 8.88178e-016 3.55271e-015 -0.265798 0.479116 0.00111283 15.6024 -4.76837e-006 -9.53674e-007 16.4687 -28.2948 45.8717 9.68174 -3.8147e-006 -4.76837e-006 37.3091 1.20954 -14.9243 10.6982 2.16716e-013 2.86102e-006 54.9603 -4.11207 -2.4247 11.1504 -3.55271e-015 3.90798e-014 1.95359e-008 8.7796e-006 -5.94185e-010 28.5502 2.54627 -3.93738 89.995 -40.8534 50.3814 2.30267 -1.90735e-006 8.88178e-016 -62.9231 8.91912 -32.4211 5.31895 1.90735e-006 1.19209e-007 -18.2549 4.28349 -17.5823 9.71242 -2.61124e-013 -2.38419e-006 -12.2133 1.65938 -4.09366 28.5502 -2.54612 -3.93737 89.9967 -39.1541 129.609 2.30267 -1.90735e-006 4.76837e-007 -92.1039 1.12294 -3.47732 5.31895 -3.55272e-015 -7.10543e-015 -21.9655 2.77868 6.34308 9.71243 9.53675e-007 -5.36442e-007 -10.8944 4.19328 5.7207 15.9737 8.03546 -8.36195 67.6224 13.4924 -11.4466 16.8869 -2.38419e-006 -1.90735e-006 -41.1875 -9.97071 -24.3599 8.42975 -3.55271e-015 -9.53675e-007 -19.255 -8.92581 -9.24648 7.53865 -0.0312079 2.09083 -7.45032 -5.03162 -5.24042 14.7806 -6.70232 -9.44365 -33.0354 -34.8713 10.1124 19.9827 1.90735e-006 -3.8147e-006 47.7706 5.13013 -39.7495 17.4553 3.8147e-006 9.53674e-007 32.6003 0.386672 -16.1132 13.3835 -2.22654 7.39821 8.79904 1.68776 -15.8453 
